@startuml
skinparam classAttributeIconSize 0
hide circle

class Complex {
 - a : double
 - b : double
 + Complex(a : double, b : double)
 + Complex()
 + toString() : String <<override>>
}

class TestComplex {
 +{static} main(args : String[])
}

TestComplex - Complex

' Objects from above classes

object c1
c1 : a = 3.0
c1 : b = 4.0

object c3
c3 : a = 5.0
c3 : b = 0.0

object c4
c4 : a = 0.0
c4 : b = 3.14

object c5
c5 : a = 8.0
c5 : b = 7.14

Complex <.. c1
Complex <.. c3
Complex <.. c4
Complex <.. c5

@enduml

